# xmcd
#
# Track frame offsets: 
#        150
#        5390
#        16040
#        61115
#        70611
#        88848
#        114242
#        148480
#        168484
#        196755
#        224655
#        263641
#        304896
#        315479
#
# Disc length: 4793 seconds
#
# Revision: 1
# Processed by: cddbd v1.5.2PL0 Copyright (c) Steve Scherf et al.
# Submitted via: ExactAudioCopy v1.0b3
#
DISCID=bb12b70e
DTITLE=RUOTSIONHOMOILLE - BÖG BÖG
DYEAR=1900
DGENRE=
TTITLE0=PIPPELI
TTITLE1=KIKKELI
TTITLE2=PISSA
TTITLE3=PYLLY
TTITLE4=KAKKOJA
TTITLE5=PEPPU
TTITLE6=PIPPELI 2
TTITLE7=KAKKA 2 - KAKAN PALUU
TTITLE8=PISSARUOTSI
TTITLE9=HOMO
TTITLE10=LESBO
TTITLE11=KEKKONEN
TTITLE12=PYLLYKARVA
TTITLE13=MOOSESPYLLY
EXTD=
EXTT0=
EXTT1=
EXTT2=
EXTT3=
EXTT4=
EXTT5=
EXTT6=
EXTT7=
EXTT8=
EXTT9=
EXTT10=
EXTT11=
EXTT12=
EXTT13=
PLAYORDER=
